<svg width="18" height="21" viewBox="0 0 18 21" fill="none" xmlns="http://www.w3.org/2000/svg">
<g clip-path="url(#clip0_227_974)">
<path d="M0.515491 14.1429H11.0559C11.1236 14.143 11.1907 14.1297 11.2533 14.1038C11.3158 14.0779 11.3727 14.0399 11.4206 13.992C11.4684 13.9442 11.5064 13.8873 11.5323 13.8248C11.5582 13.7622 11.5715 13.6951 11.5714 13.6274V12.087C11.5715 12.0193 11.5582 11.9522 11.5323 11.8896C11.5064 11.8271 11.4684 11.7702 11.4206 11.7223C11.3727 11.6745 11.3158 11.6365 11.2533 11.6106C11.1907 11.5847 11.1236 11.5714 11.0559 11.5715H0.515491C0.447781 11.5714 0.380725 11.5847 0.318159 11.6106C0.255593 11.6365 0.198744 11.6745 0.150866 11.7223C0.102988 11.7702 0.0650191 11.8271 0.039132 11.8896C0.0132448 11.9522 -5.26798e-05 12.0193 1.56839e-07 12.087V13.6274C-5.26798e-05 13.6951 0.0132448 13.7622 0.039132 13.8248C0.0650191 13.8873 0.102988 13.9442 0.150866 13.992C0.198744 14.0399 0.255593 14.0779 0.318159 14.1038C0.380725 14.1297 0.447781 14.143 0.515491 14.1429V14.1429ZM0.515491 3.8572H11.0559C11.1236 3.85725 11.1907 3.84395 11.2533 3.81806C11.3158 3.79218 11.3727 3.75421 11.4206 3.70633C11.4684 3.65845 11.5064 3.6016 11.5323 3.53904C11.5582 3.47647 11.5715 3.40941 11.5714 3.3417V1.80126C11.5715 1.73355 11.5582 1.66649 11.5323 1.60393C11.5064 1.54136 11.4684 1.48451 11.4206 1.43663C11.3727 1.38875 11.3158 1.35079 11.2533 1.3249C11.1907 1.29901 11.1236 1.28571 11.0559 1.28577H0.515491C0.447781 1.28571 0.380725 1.29901 0.318159 1.3249C0.255593 1.35079 0.198744 1.38875 0.150866 1.43663C0.102988 1.48451 0.0650191 1.54136 0.039132 1.60393C0.0132448 1.66649 -5.26798e-05 1.73355 1.56839e-07 1.80126V3.3417C-5.26798e-05 3.40941 0.0132448 3.47647 0.039132 3.53904C0.0650191 3.6016 0.102988 3.65845 0.150866 3.70633C0.198744 3.75421 0.255593 3.79218 0.318159 3.81806C0.380725 3.84395 0.447781 3.85725 0.515491 3.8572V3.8572ZM17.3571 6.42862H0.642857C0.472361 6.42862 0.308848 6.49635 0.188289 6.61691C0.0677296 6.73747 1.56839e-07 6.90098 1.56839e-07 7.07148V8.3572C1.56839e-07 8.52769 0.0677296 8.6912 0.188289 8.81176C0.308848 8.93232 0.472361 9.00005 0.642857 9.00005H17.3571C17.5276 9.00005 17.6912 8.93232 17.8117 8.81176C17.9323 8.6912 18 8.52769 18 8.3572V7.07148C18 6.90098 17.9323 6.73747 17.8117 6.61691C17.6912 6.49635 17.5276 6.42862 17.3571 6.42862ZM17.3571 16.7143H0.642857C0.472361 16.7143 0.308848 16.7821 0.188289 16.9026C0.0677296 17.0232 1.56839e-07 17.1867 1.56839e-07 17.3572V18.6429C1.56839e-07 18.8134 0.0677296 18.9769 0.188289 19.0975C0.308848 19.218 0.472361 19.2858 0.642857 19.2858H17.3571C17.5276 19.2858 17.6912 19.218 17.8117 19.0975C17.9323 18.9769 18 18.8134 18 18.6429V17.3572C18 17.1867 17.9323 17.0232 17.8117 16.9026C17.6912 16.7821 17.5276 16.7143 17.3571 16.7143Z" fill="#F8F8F8"/>
</g>
<defs>
<clipPath id="clip0_227_974">
<rect width="18" height="20.5714" fill="white"/>
</clipPath>
</defs>
</svg>
