<svg width="32" height="32" viewBox="0 0 32 32" fill="none" xmlns="http://www.w3.org/2000/svg">
<path d="M29.4188 0.590062C29.6063 0.780625 29.75 1 29.85 1.23438C29.9438 1.46875 29.9438 1.725 30 1.99375V8C30 9.10625 29.1063 10 28 10C26.8937 10 26 9.10625 26 8V6.83125L19.4125 13.4125C18.675 14.1563 17.4938 14.2 16.7 13.5188L10.9438 8.63125L5.30125 13.5188C4.46312 14.2375 3.2 14.1375 2.48125 13.3C1.7625 12.4625 1.86 11.2 2.69812 10.4812L9.7 4.48125C10.45 3.83937 11.55 3.83937 12.3 4.48125L17.8937 9.275L23.1688 4H22C20.8937 4 20 3.10438 20 2C20 0.895625 20.8937 0 22 0H27.9438C28.55 0 29.05 0.222125 29.4125 0.581563L29.4188 0.590062V0.590062ZM0 19C0 17.3438 1.34312 16 3 16H29C30.6562 16 32 17.3438 32 19V29C32 30.6562 30.6562 32 29 32H3C1.34312 32 0 30.6562 0 29V19ZM3 29H6C6 27.3438 4.65688 26 3 26V29ZM3 19V22C4.65688 22 6 20.6562 6 19H3ZM29 26C27.3438 26 26 27.3438 26 29H29V26ZM26 19C26 20.6562 27.3438 22 29 22V19H26ZM16 20C13.7938 20 12 21.7938 12 24C12 26.2062 13.7938 28 16 28C18.2062 28 20 26.2062 20 24C20 21.7938 18.2062 20 16 20Z" fill="#F8F8F8"/>
</svg>
