<svg width="64" height="64" viewBox="0 0 64 64" fill="none" xmlns="http://www.w3.org/2000/svg">
<path d="M5.38935 0C2.57869 0 0.296021 2.35467 0.296021 5.26133V58.7387C0.296021 61.6453 2.58135 64 5.38935 64H58.6133C61.424 64 63.7067 61.6427 63.7067 58.7387V5.26133C63.7067 2.35467 61.424 0 58.6133 0H5.38669H5.38935ZM26.9334 12.3947C27.2261 12.4434 27.5036 12.5593 27.744 12.7333C28.129 12.9919 28.453 13.3314 28.6934 13.728C28.7608 13.7791 28.816 13.8446 28.8548 13.9199C28.8935 13.9951 28.9149 14.0781 28.9174 14.1627C29.3574 15.1973 29.2774 16.448 28.52 17.3707C28.0134 17.9893 27.376 18.184 26.792 18.072C26.7155 18.1258 26.6281 18.1622 26.536 18.1787C25.4427 18.5253 24.1787 17.5973 23.8854 16.4107C23.712 15.7173 23.6534 14.6133 24.088 13.9893C24.148 13.9015 24.2218 13.8241 24.3067 13.76C24.3163 13.5201 24.3612 13.2828 24.44 13.056C24.6454 12.4853 25.1227 12.4853 25.5734 12.6613C25.6528 12.6493 25.733 12.644 25.8134 12.6453C25.954 12.6467 26.0946 12.6538 26.2347 12.6667C26.3163 12.5631 26.4241 12.4833 26.5469 12.4354C26.6698 12.3876 26.8032 12.3735 26.9334 12.3947V12.3947ZM49.4134 12.3947C49.6747 12.4267 49.9573 12.5547 50.224 12.7333C50.6081 12.9922 50.9311 13.3316 51.1707 13.728C51.2382 13.7791 51.2933 13.8446 51.3321 13.9199C51.3709 13.9951 51.3923 14.0781 51.3947 14.1627C51.8374 15.1973 51.7574 16.448 51 17.3707C50.4934 17.9893 49.8533 18.184 49.272 18.072C49.1955 18.1258 49.1081 18.1622 49.016 18.1787C47.9227 18.5253 46.656 17.5973 46.3653 16.4107C46.192 15.7173 46.1333 14.6133 46.568 13.9893C46.628 13.9015 46.7018 13.8241 46.7867 13.76C46.7952 13.5202 46.8392 13.2829 46.9174 13.056C47.1227 12.4853 47.6 12.4853 48.048 12.6613C48.1283 12.6495 48.2095 12.6442 48.2907 12.6453C48.4322 12.6466 48.5737 12.6538 48.7147 12.6667C48.796 12.5635 48.9034 12.484 49.0258 12.4362C49.1481 12.3884 49.281 12.374 49.4107 12.3947H49.4134ZM14.3227 12.8213C14.92 12.7867 15.552 12.9893 16.0534 13.3493C16.2865 13.5156 16.4933 13.7161 16.6667 13.944C16.7199 13.9774 16.7724 14.0121 16.824 14.048C17.7334 14.6987 17.656 15.8587 17.0214 16.6933L17.0107 16.7147C16.8164 17.1807 16.4815 17.5746 16.0527 17.8413C15.6239 18.108 15.1226 18.2343 14.6187 18.2027C13.8134 18.1813 12.9894 17.9787 12.432 17.48C11.8987 17.0987 11.5254 16.5307 11.5467 15.808C11.5456 15.7326 11.5689 15.6589 11.6131 15.5979C11.6573 15.5369 11.7201 15.4918 11.792 15.4693C11.9053 14.8478 12.227 14.2835 12.704 13.8693C12.8538 13.5646 13.0835 13.3062 13.3685 13.1216C13.6536 12.9371 13.9833 12.8333 14.3227 12.8213V12.8213ZM37.4747 12.8293C38.072 12.792 38.704 12.9893 39.2027 13.3493C39.4351 13.5166 39.641 13.718 39.8134 13.9467C39.8657 13.981 39.9173 14.0166 39.968 14.0533C40.88 14.704 40.808 15.864 40.1707 16.6987L40.1574 16.7147C39.9643 17.1805 39.6305 17.5744 39.2025 17.8412C38.7746 18.108 38.274 18.2344 37.7707 18.2027C36.9654 18.1813 36.1334 17.9787 35.5787 17.48C35.3021 17.2989 35.0762 17.0504 34.9222 16.7579C34.7683 16.4654 34.6913 16.1385 34.6987 15.808C34.6987 15.7335 34.7225 15.6611 34.7667 15.6011C34.8108 15.5411 34.8729 15.4968 34.944 15.4747C35.0555 14.8537 35.3753 14.2894 35.8507 13.8747C36.0014 13.5689 36.2323 13.3099 36.5188 13.1253C36.8054 12.9407 37.1367 12.8375 37.4774 12.8267L37.4747 12.8293ZM15.3894 14.152C15.4212 14.1861 15.4515 14.2217 15.48 14.2587L15.5094 14.272C15.5619 14.2845 15.6106 14.3094 15.6515 14.3446C15.6923 14.3799 15.7241 14.4245 15.744 14.4747C15.9659 14.5407 16.1707 14.6545 16.344 14.808C16.2892 14.6802 16.2194 14.5593 16.136 14.448C15.901 14.3173 15.65 14.2178 15.3894 14.152V14.152ZM38.536 14.152C38.567 14.1862 38.5963 14.2218 38.624 14.2587L38.656 14.272C38.76 14.2907 38.8427 14.3733 38.8907 14.4747C39.1126 14.5407 39.3174 14.6545 39.4907 14.808C39.435 14.6801 39.3643 14.5592 39.28 14.448C39.046 14.3173 38.7959 14.2178 38.536 14.152V14.152ZM26.3947 14.4693C26.37 14.7308 26.3655 14.9938 26.3814 15.256C26.5814 15.144 26.5974 14.8027 26.552 14.5573C26.5028 14.5226 26.4501 14.4931 26.3947 14.4693V14.4693ZM48.8694 14.4693C48.8459 14.7309 48.8423 14.9939 48.8587 15.256C49.0614 15.144 49.072 14.8027 49.0267 14.5573L48.9734 14.52C48.94 14.4997 48.9053 14.4819 48.8694 14.4667V14.4693ZM14.8 15.0667L14.5707 15.1413L14.5974 15.248C14.7494 15.1627 14.952 15.1733 15.064 15.3227C15.0647 15.2719 15.062 15.2211 15.056 15.1707C14.9872 15.1581 14.9201 15.1375 14.856 15.1093C14.8347 15.0987 14.8187 15.0827 14.8 15.0667V15.0667ZM37.9467 15.0667L37.7174 15.1413L37.7467 15.248C37.8987 15.1627 38.104 15.1733 38.216 15.3227C38.2158 15.2718 38.2122 15.221 38.2054 15.1707C38.1374 15.1579 38.0712 15.1373 38.008 15.1093C37.9863 15.097 37.9658 15.0827 37.9467 15.0667V15.0667ZM13.8614 15.3013C13.8694 15.3467 13.8747 15.3973 13.888 15.4427C13.9053 15.5129 13.9257 15.5823 13.9494 15.6507C13.88 15.5733 13.848 15.456 13.8614 15.304V15.3013ZM37.008 15.3067C37.0283 15.4243 37.0578 15.5402 37.096 15.6533C37.0267 15.576 36.9947 15.4613 37.008 15.3067ZM28.528 15.36L28.4987 15.4053C28.4645 15.6514 28.3411 15.8763 28.152 16.0373C28.151 16.0427 28.1502 16.048 28.1494 16.0533C28.1629 16.1109 28.1601 16.1711 28.1413 16.2272C28.1224 16.2833 28.0883 16.333 28.0427 16.3707C28.0191 16.4285 27.9933 16.4855 27.9654 16.5413C27.8559 16.8056 27.7239 17.0598 27.5707 17.3013C27.8086 17.1735 28.0083 16.9849 28.1494 16.7547C28.416 16.3387 28.5414 15.848 28.528 15.36V15.36ZM51.008 15.36L50.976 15.4053C50.943 15.6511 50.8205 15.8762 50.632 16.0373C50.632 16.04 50.632 16.048 50.6267 16.0533C50.6614 16.168 50.6133 16.288 50.5227 16.3707C50.4986 16.4283 50.4728 16.4852 50.4454 16.5413C50.3359 16.8056 50.2039 17.0598 50.0507 17.3013C50.288 17.1738 50.4869 16.985 50.6267 16.7547C50.8934 16.3387 51.0214 15.848 51.008 15.36V15.36ZM24.4454 15.464C24.4429 15.5823 24.4465 15.7007 24.456 15.8187C24.5014 16.312 24.664 16.84 25.04 17.1867C25.1108 17.2532 25.1876 17.313 25.2694 17.3653C25.1055 17.1389 24.977 16.8889 24.888 16.624C24.7056 16.2516 24.5574 15.8633 24.4454 15.464V15.464ZM46.9254 15.464C46.9229 15.5823 46.9265 15.7007 46.936 15.8187C46.9814 16.312 47.144 16.84 47.5174 17.1867C47.5881 17.2532 47.6649 17.313 47.7467 17.3653C47.5844 17.1384 47.4567 16.8885 47.368 16.624C47.185 16.2518 47.0368 15.8635 46.9254 15.464V15.464ZM15.8054 15.8533C15.7852 15.913 15.7603 15.971 15.7307 16.0267L15.8267 16.208C15.8535 16.0902 15.8461 15.9671 15.8054 15.8533V15.8533ZM38.9547 15.8533C38.933 15.9128 38.9071 15.9708 38.8774 16.0267L38.9707 16.208C38.9988 16.0906 38.9932 15.9677 38.9547 15.8533V15.8533ZM14.7147 16.9467C14.5607 17.0045 14.3989 17.0387 14.2347 17.048L14.2 17.088C14.4037 17.121 14.6121 17.1092 14.8107 17.0533C14.7777 17.0195 14.7465 16.9839 14.7174 16.9467H14.7147ZM37.8614 16.9467C37.7074 17.0045 37.5456 17.0387 37.3814 17.048L37.3467 17.088C37.5495 17.1206 37.7569 17.1088 37.9547 17.0533C37.9221 17.0191 37.8909 16.9835 37.8614 16.9467V16.9467ZM26.3734 23.08C26.7454 23.0831 27.1131 23.1596 27.4555 23.305C27.7979 23.4505 28.1083 23.662 28.3689 23.9275C28.6295 24.193 28.8351 24.5074 28.9741 24.8525C29.113 25.1975 29.1826 25.5667 29.1787 25.9387V48.8187C29.1787 50.3973 27.9254 51.6773 26.3734 51.6773C24.8187 51.6773 23.56 50.3973 23.56 48.8187V25.9387C23.56 24.36 24.8187 23.08 26.3734 23.0773V23.08ZM48.856 23.08C49.2281 23.0831 49.596 23.1596 49.9386 23.305C50.2812 23.4504 50.5917 23.6619 50.8525 23.9274C51.1133 24.1928 51.3192 24.5071 51.4584 24.8522C51.5977 25.1974 51.6675 25.5665 51.664 25.9387V48.8187C51.664 50.3973 50.4107 51.6773 48.856 51.6773C47.304 51.6773 46.0454 50.3973 46.0454 48.8187V25.9387C46.0454 24.36 47.304 23.08 48.856 23.0773V23.08ZM14.3227 23.36C14.92 23.3253 15.552 23.52 16.0534 23.88C16.2867 24.0481 16.4935 24.2504 16.6667 24.48C16.7198 24.5137 16.7722 24.5483 16.824 24.584C17.7334 25.2347 17.656 26.3947 17.0214 27.2293L17.0107 27.2453C16.8164 27.7114 16.4815 28.1052 16.0527 28.372C15.6239 28.6387 15.1226 28.765 14.6187 28.7333C13.8134 28.7147 12.9894 28.512 12.432 28.0107C11.8987 27.632 11.5254 27.0667 11.5467 26.344C11.5456 26.2686 11.5689 26.1949 11.6131 26.1339C11.6573 26.0729 11.7201 26.0278 11.792 26.0053C11.9053 25.3838 12.227 24.8195 12.704 24.4053C12.8531 24.1 13.0826 23.8412 13.3678 23.6565C13.653 23.4719 13.9831 23.3684 14.3227 23.3573V23.36ZM37.4747 23.36C38.072 23.3253 38.704 23.52 39.2027 23.88C39.4351 24.0483 39.641 24.2506 39.8134 24.48C39.8656 24.5137 39.9171 24.5484 39.968 24.584C40.88 25.2347 40.808 26.3947 40.1707 27.2293L40.1574 27.2453C39.9643 27.7112 39.6305 28.1051 39.2025 28.3719C38.7746 28.6387 38.274 28.7651 37.7707 28.7333C36.9654 28.7147 36.1334 28.512 35.5787 28.0107C35.3024 27.8306 35.0765 27.5831 34.9225 27.2915C34.7685 26.9998 34.6915 26.6737 34.6987 26.344C34.6976 26.2686 34.7209 26.1949 34.7651 26.1339C34.8093 26.0729 34.8721 26.0278 34.944 26.0053C35.0555 25.3844 35.3753 24.82 35.8507 24.4053C36.0014 24.0996 36.2323 23.8406 36.5188 23.656C36.8054 23.4714 37.1367 23.3682 37.4774 23.3573L37.4747 23.36ZM15.3894 24.6827C15.4214 24.7194 15.4517 24.7577 15.48 24.7973L15.5094 24.8027C15.5619 24.8151 15.6106 24.84 15.6515 24.8753C15.6923 24.9106 15.7241 24.9552 15.744 25.0053C15.9658 25.0717 16.1705 25.1854 16.344 25.3387C16.2888 25.2127 16.219 25.0937 16.136 24.984C15.9007 24.8528 15.6498 24.7515 15.3894 24.6827V24.6827ZM38.536 24.6827C38.5672 24.7195 38.5965 24.7577 38.624 24.7973L38.656 24.8027C38.76 24.8213 38.8427 24.904 38.8907 25.0053C39.1125 25.0717 39.3172 25.1854 39.4907 25.3387C39.4346 25.2126 39.3639 25.0935 39.28 24.984C39.0456 24.8527 38.7957 24.7515 38.536 24.6827V24.6827ZM14.8 25.6L14.5707 25.672L14.5974 25.7813C14.7494 25.696 14.952 25.704 15.064 25.8533C15.0643 25.8052 15.0617 25.7571 15.056 25.7093C14.9868 25.6945 14.9196 25.6712 14.856 25.64C14.8347 25.6293 14.8187 25.6133 14.8 25.6V25.6ZM37.9467 25.6L37.7174 25.672L37.7467 25.7813C37.8987 25.696 38.104 25.704 38.216 25.8533C38.2154 25.8052 38.2119 25.7571 38.2054 25.7093C38.137 25.6943 38.0707 25.671 38.008 25.64C37.9864 25.6285 37.9659 25.6151 37.9467 25.6V25.6ZM13.8614 25.84C13.8776 25.9522 13.9062 26.0622 13.9467 26.168C13.911 26.1214 13.8851 26.0681 13.8704 26.0113C13.8558 25.9545 13.8527 25.8954 13.8614 25.8373V25.84ZM37.008 25.84C37.0234 25.952 37.0511 26.0621 37.0907 26.168C37.0209 26.0729 36.9912 25.9541 37.008 25.8373V25.84ZM15.8054 26.3893C15.7851 26.4473 15.7601 26.5035 15.7307 26.5573C15.7628 26.6195 15.7948 26.6817 15.8267 26.744C15.8536 26.6262 15.8462 26.5031 15.8054 26.3893V26.3893ZM38.9547 26.3893C38.9336 26.4474 38.9077 26.5036 38.8774 26.5573C38.9086 26.6195 38.9397 26.6817 38.9707 26.744C38.9988 26.6266 38.9932 26.5037 38.9547 26.3893V26.3893ZM14.7147 27.48C14.5604 27.5363 14.3987 27.5695 14.2347 27.5787V27.584L14.2 27.624C14.4041 27.6539 14.6122 27.6403 14.8107 27.584C14.778 27.5498 14.7469 27.5142 14.7174 27.4773L14.7147 27.48ZM37.8614 27.48C37.7071 27.5363 37.5453 27.5695 37.3814 27.5787V27.584L37.3467 27.624C37.5499 27.6535 37.7571 27.6399 37.9547 27.584L37.8614 27.4773V27.48ZM15.128 34.52C16.68 34.52 17.936 35.8 17.936 37.3813V48.8187C17.936 50.3973 16.6827 51.6773 15.128 51.6773C13.576 51.6773 12.3147 50.3973 12.3147 48.8187V37.3787C12.3147 35.8 13.576 34.52 15.128 34.52V34.52ZM37.6134 34.52C39.1627 34.52 40.424 35.8 40.424 37.3813V48.8187C40.424 50.3973 39.1627 51.6773 37.6134 51.6773C36.0587 51.6773 34.8054 50.3973 34.8054 48.8187V37.3787C34.8054 35.8 36.0587 34.52 37.6134 34.52V34.52Z" fill="#F8F8F8"/>
</svg>
