<svg width="52" height="60" viewBox="0 0 52 60" fill="none" xmlns="http://www.w3.org/2000/svg">
<path d="M52 6H48V2.801C48 1.26 46.842 0 45.43 0H32.566C31.158 0 30 1.26 30 2.801V6H5.941L0 18H4.125V26H3.457L0.125 30L3.457 34H4.187V36.148C4.187 36.691 4.606 37.13 5.125 37.13C6.676 37.13 7.938 38.454 7.938 40.081C7.938 41.708 6.676 43.032 5.125 43.032C3.574 43.032 2.312 41.708 2.312 40.081C2.312 39.538 1.892 39.099 1.374 39.099C0.855 39.099 0.436 39.538 0.436 40.081C0.438 42.795 2.54 45 5.125 45C7.709 45 9.813 42.795 9.813 40.082C9.813 37.707 8.2 35.719 6.063 35.264V34H6.792L10.125 30L6.792 26H6.125V18H30V25.199C30 26.527 30.861 27.64 32 27.926V60H34.625V54L43.375 57L34.625 60H46V27.925C47.14 27.64 48 26.527 48 25.199V18H52V15H49.922L52 11.055V6ZM4.643 15L6.979 10.201L9.505 15H4.643ZM9.065 9H13.218L11.142 12.945L9.065 9V9ZM12.779 15L14.856 11.055L16.934 15H12.779ZM16.494 9H20.647L18.57 12.945L16.494 9ZM20.209 15L22.285 11.055L24.361 15H20.209ZM23.923 9H28.076L26 12.945L23.923 9ZM30 15H27.637L29.713 11.055L30 11.6V15ZM43.375 54L34.625 51L43.375 48V54ZM34.625 48V42L43.375 45.002L34.625 48ZM43.375 42L34.625 39L43.375 36V42ZM34.625 36V30.002L43.375 33L34.625 36ZM43.375 30.002L37.54 28H43.375V30.002ZM44.875 13.248C44.875 14.211 44.199 15 43.375 15H34.373C33.549 15 32.875 14.211 32.875 13.248V4.758C32.875 3.789 33.549 3 34.373 3H43.375C44.199 3 44.875 3.789 44.875 4.758V13.248V13.248ZM48.285 12.945L48 12.403V9H50.361L48.285 12.945" fill="#F8F8F8"/>
</svg>
