<svg width="38" height="54" viewBox="0 0 38 54" fill="none" xmlns="http://www.w3.org/2000/svg">
<path fill-rule="evenodd" clip-rule="evenodd" d="M4.09276 29.7133C5.37543 31.2813 8.63943 37.0907 9.33276 40H27.9994C28.6928 37.0933 31.9528 31.284 33.2354 29.7173C35.4273 27.0435 36.8071 23.7977 37.2114 20.364C37.6103 16.937 37.0136 13.4676 35.4928 10.3707C33.9575 7.25079 31.5703 4.62927 28.6074 2.80934C25.6185 0.97091 22.1778 -0.00164652 18.6688 2.09248e-06C15.1528 2.09248e-06 11.7074 0.973336 8.73009 2.80667C5.76646 4.62591 3.37839 7.24697 1.84209 10.3667C0.320357 13.4624 -0.277695 16.9308 0.119427 20.3573C0.518093 23.78 1.89543 27.024 4.09276 29.7133V29.7133ZM19.9994 10.6667L11.9994 22.6667H17.3328V30.6667L25.3328 18.6667H19.9994V10.6667Z" fill="#F8F8F8"/>
<path d="M9.33276 44.0001C9.33276 43.6465 9.47324 43.3073 9.72329 43.0573C9.97334 42.8072 10.3125 42.6667 10.6661 42.6667H26.6661C27.0197 42.6667 27.3589 42.8072 27.6089 43.0573C27.859 43.3073 27.9994 43.6465 27.9994 44.0001C27.9994 44.3537 27.859 44.6928 27.6089 44.9429C27.3589 45.1929 27.0197 45.3334 26.6661 45.3334H10.6661C10.3125 45.3334 9.97334 45.1929 9.72329 44.9429C9.47324 44.6928 9.33276 44.3537 9.33276 44.0001ZM27.9994 48.0001H9.33276V50.6667C9.33276 51.374 9.61372 52.0523 10.1138 52.5524C10.6139 53.0525 11.2922 53.3334 11.9994 53.3334H25.3328C26.04 53.3334 26.7183 53.0525 27.2184 52.5524C27.7185 52.0523 27.9994 51.374 27.9994 50.6667V48.0001Z" fill="#F8F8F8"/>
</svg>
