<svg width="64" height="64" viewBox="0 0 64 64" fill="none" xmlns="http://www.w3.org/2000/svg">
<path d="M52.0125 16.0125C50.95 17.2875 49.05 17.2875 47.875 16.0125C46.7125 14.95 46.7125 13.05 47.875 11.8787L58.875 0.878625C60.05 -0.292875 61.95 -0.292875 63.0125 0.878625C64.2875 2.05 64.2875 3.95 63.0125 5.12125L52.0125 16.0125ZM40.9 28.7625L36.9125 32.6375C40.475 33.0875 43.9375 34.625 46.675 37.35L49.3875 40.1875L46.675 43.0125C41.9875 47.7 34.3875 47.7 29.7 43.0125L28.175 41.4875L24.1875 45.475C27.6375 45.8125 31.2125 47.35 33.9375 50.0875L36.775 52.9125L33.9375 55.7375C29.25 60.425 21.6625 60.425 16.975 55.7375L15.4375 54.2125L6.82875 62.825C5.26625 64.3875 2.73375 64.3875 1.1715 62.825C-0.3905 61.2625 -0.3905 58.7375 1.1715 57.175L9.78625 48.5625L8.485 47.25C3.79875 42.575 3.79875 34.975 8.485 30.2875L11.3138 27.45L14.1375 30.2875C16.7625 32.9125 18.2875 36.2125 18.7125 39.6375L22.5125 35.825L21.2125 34.525C16.525 29.8375 16.525 22.2375 21.2125 17.5625L24.0375 14.725L26.7625 17.5625C29.3875 20.175 31.0125 23.4875 31.4375 26.9125L35.2375 23.1L33.9375 21.8C29.25 17.1125 29.25 9.515 33.9375 4.82875L36.775 2L39.6 4.82875C40.1625 5.39375 40.675 5.9925 41.1375 6.61625L46.875 0.87875C48.05 -0.292875 49.95 -0.292875 51.0125 0.87875C52.2875 2.05 52.2875 3.95 51.0125 5.12125L43.8375 12.4C44.4875 15.0875 44.425 17.9 43.6625 20.5625C46.2 19.8375 48.8875 19.6375 51.4625 20.3L58.875 12.875C60.05 11.7075 61.95 11.7075 63.0125 12.875C64.2875 14.05 64.2875 15.95 63.0125 17.0125L57.35 22.9C58.0625 23.4 58.75 23.9875 59.4 24.625L62.225 27.45L59.4 30.2875C54.7125 34.975 47.1125 34.975 42.425 30.2875L40.9 28.7625V28.7625Z" fill="#F8F8F8"/>
</svg>
